<mxfile host="app.diagrams.net" modified="2023-11-20T07:46:32.858Z" agent="Mozilla/5.0 (Macintosh; Intel Mac OS X 10_15_7) AppleWebKit/537.36 (KHTML, like Gecko) Chrome/119.0.0.0 Safari/537.36" version="22.1.3" etag="VOy4JP-N_osSvepFrSCj" type="github">
  <diagram name="第 1 页" id="wvnq4uJY2lPpRDyeuScc">
    <mxGraphModel>
      <root>
        <mxCell id="0" />
        <mxCell id="1" parent="0" />
      </root>
    </mxGraphModel>
  </diagram>
</mxfile>
